<svg width="18" height="18" viewBox="0 0 18 18" fill="none" xmlns="http://www.w3.org/2000/svg">
<path d="M14.5238 9.41998L10.7889 13.17C10.6689 13.29 10.5188 13.35 10.3688 13.35C10.2188 13.35 10.0688 13.29 9.94885 13.17C9.70885 12.93 9.70885 12.555 9.94885 12.315L12.6639 9.58498H3.90385C3.57385 9.58498 3.30385 9.31498 3.30385 8.98498C3.30385 8.65498 3.57385 8.38498 3.90385 8.38498H12.6639L9.94885 5.655C9.70885 5.415 9.70885 5.04 9.94885 4.8C10.1888 4.56 10.5638 4.56 10.8038 4.8L14.5389 8.54998C14.7639 8.80498 14.7638 9.19498 14.5238 9.41998Z" fill="#555555"/>
</svg>
